<svg width="512" height="512" viewBox="0 0 24 24" xmlns="http://www.w3.org/2000/svg">
    <g fill="none">
        <circle cx="17" cy="7" r="3" fill="#6366f1" opacity=".16"/>
        <circle cx="7" cy="17" r="3" fill="#6366f1" opacity=".16"/>
        <path fill="#6366f1" d="M14 14h6v5a1 1 0 0 1-1 1h-4a1 1 0 0 1-1-1v-5ZM4 4h6v5a1 1 0 0 1-1 1H5a1 1 0 0 1-1-1V4Z" opacity=".16"/>
        <circle cx="17" cy="7" r="3" stroke="#6366f1" stroke-linecap="round" stroke-linejoin="round" stroke-width="2"/>
        <circle cx="7" cy="17" r="3" stroke="#6366f1" stroke-linecap="round" stroke-linejoin="round" stroke-width="2"/>
        <path stroke="#6366f1" stroke-linecap="round" stroke-linejoin="round" stroke-width="2" d="M14 14h6v5a1 1 0 0 1-1 1h-4a1 1 0 0 1-1-1v-5ZM4 4h6v5a1 1 0 0 1-1 1H5a1 1 0 0 1-1-1V4Z"/>
    </g>
</svg>